<svg version="1.1" xmlns="http://www.w3.org/2000/svg" xmlns:xlink="http://www.w3.org/1999/xlink" width="69.22619" height="64.24299" viewBox="0,0,69.22619,64.24299"><g transform="translate(-205.3869,-147.8785)"><g stroke-miterlimit="10"><g><path d="M231.12881,197.63823c0.39544,1.12249 -0.72706,1.51793 -0.72706,1.51793l-0.65191,0.22567c-2.57279,1.13855 -5.48127,2.3737 -8.37202,1.9744c-1.36992,-0.18923 -3.52718,-1.35068 -4.73871,-1.92684c-0.36697,-0.17452 -0.61619,-0.62927 -1.02085,-0.66632c-0.27051,-0.02476 -0.38599,0.39887 -0.63153,0.51505c-0.43853,0.20749 -0.92861,0.28208 -1.38727,0.44016c-2.10131,0.7242 -4.82937,1.86683 -6.71403,-0.26493c-2.04364,-2.31159 -0.94913,-6.23531 -0.61214,-8.93124c0,0 0.14762,-1.18092 1.32853,-1.03331c1.18092,0.14762 1.03331,1.32853 1.03331,1.32853c-0.22201,1.77608 -1.27812,5.43177 0.00153,7.02399c1.13907,1.4173 4.22682,-0.27914 5.39927,-0.74527c0.51891,-0.2063 0.9584,-0.73663 1.51629,-0.71228c2.15368,0.09401 4.08322,2.33888 6.20687,2.62298c2.37413,0.3176 4.92155,-0.86118 7.02405,-1.79999l0.82774,-0.29559c0,0 1.12249,-0.39544 1.51793,0.72706z" fill="#000000" stroke="none" stroke-width="0.5"/><path d="M237.08162,198.26774c-1.53272,-0.38327 -3.05292,-0.69338 -4.58584,-1.02274c-0.14262,0.44462 -0.24286,0.90308 -0.40449,1.34114c-0.05908,0.16012 -0.35287,0.30207 -0.25665,0.44304c0.37539,0.55 1.3159,0.21022 1.97858,0.27559c0.20494,0.02022 1.79302,0.28527 2.15275,0.0962c0.40796,-0.21442 0.79422,-0.67529 1.12621,-1.13274zM236.99392,211.43596c-1.12904,-0.37635 -0.75269,-1.50538 -0.75269,-1.50538l0.09825,-0.20232c0.26715,-2.64488 0.17848,-5.32889 0.15323,-7.99297c-0.91828,0.23676 -2.07189,0.03126 -2.92935,-0.06343c-0.46428,-0.05127 -0.94766,-0.0768 -1.41906,-0.14345c-1.72476,2.84841 -2.93426,5.82501 -3.74515,9.06818l-0.15316,0.61265c0,0 -0.28864,1.15457 -1.44322,0.86593c-1.15457,-0.28864 -0.86593,-1.44322 -0.86593,-1.44322l0.15367,-0.61467c0.85582,-3.39904 2.11571,-6.52834 3.89879,-9.52265c-0.09804,-0.11594 -0.19067,-0.24479 -0.27715,-0.38816c-0.45619,-0.75629 0.30721,-2.94672 0.54446,-3.6722c0.35679,-1.09105 0.69903,-2.30527 1.11369,-3.50762c-2.16413,1.2988 -4.09637,2.81091 -5.3934,5.08383l0.1568,0.0232c0,0 0,1.19011 -1.19011,1.19011c-1.19011,0 -1.19011,-1.19011 -1.19011,-1.19011l0.15681,-1.20412c2.07146,-3.62041 5.43329,-5.57516 9.06453,-7.51676c0,0 0.0289,-0.01541 0.07966,-0.03632c0.29947,-0.45794 0.6321,-0.88456 1.00567,-1.26776c-0.33675,-0.04945 -0.67173,-0.10028 -1.00437,-0.15022c-5.1135,-0.76771 -11.03851,-1.07525 -14.43382,-5.52623l-0.27421,-0.16222c-0.71543,0.9409 -1.48428,1.85317 -2.11474,2.71873c-0.93895,0.37796 -1.82201,0.9474 -2.81684,1.1339c-0.61753,0.11577 -1.25421,-0.11901 -1.86745,-0.25572c-3.02393,-0.67413 -5.13196,-2.13476 -6.02685,-5.28756c-0.37406,-1.31786 0.13624,-2.73688 0.24693,-4.10231c0.12749,-1.5728 0.01059,-3.18432 0.37893,-4.71869c0.34139,-1.42209 1.19941,-2.66778 1.80776,-3.99774c0.1401,-0.3063 2.013,-4.42465 2.12663,-4.56927c0.54775,-0.69716 1.37024,-1.12568 2.06752,-1.67327c0.70892,-0.55674 1.31634,-1.29807 2.15064,-1.63937c0.26731,-0.10935 0.55004,-0.19552 0.84427,-0.26211c-0.08312,-0.15607 -0.13574,-0.35371 -0.13574,-0.60396c0,-1.19011 1.19011,-1.19011 1.19011,-1.19011l0.92793,0.28651c0.46891,0.41078 0.90894,0.87027 1.31913,1.36961c1.0517,0.08236 2.08276,0.23816 2.96328,0.34748c0,0 1.18092,0.14762 1.03331,1.32853c-0.14761,1.18092 -1.32853,1.03331 -1.32853,1.03331c-0.29094,-0.03663 -0.62352,-0.08618 -0.98225,-0.13836c1.77185,3.37806 2.5549,7.58195 2.17722,11.04627c0.17159,0.07124 0.28037,0.15283 0.28037,0.15283c3.56919,2.67689 7.33996,5.56833 11.70615,6.68229c0.3411,0.08703 2.74807,0.80183 3.49872,0.75103c2.85693,-0.19335 6.04744,-1.82251 8.20421,-3.60986c1.23476,-1.02327 2.09503,-2.738 2.68234,-4.20477c0.18008,-0.44974 0.11546,-0.99984 0.38739,-1.40079c0.50483,-0.74437 1.25145,-1.29216 1.87716,-1.93824c3.72817,-3.72123 7.77197,-5.94547 12.80551,-7.52051c0.54886,-0.17174 3.04175,-0.99708 3.87588,-0.79541c2.37261,0.57363 3.73941,2.25706 5.54199,3.68761l0.05302,0.0993l0.02299,-0.02012l1.07011,1.22299c0.1856,0.2099 0.29826,0.48581 0.29826,0.78803c0,0.63012 -0.48971,1.14586 -1.1093,1.18741l-1.98394,0.15261l-0.00054,-0.00705c-0.01501,0.00326 -0.03003,0.00648 -0.04506,0.00968c-0.31407,0.06672 -0.65951,-0.1469 -0.9624,-0.04037c-1.0562,0.3715 -2.39495,1.7121 -3.14287,2.37354c-0.40485,0.35803 -0.92362,0.62079 -1.21013,1.07904c-1.17569,1.88042 -0.36788,4.5632 -1.97831,6.32193c-1.98902,2.17217 -5.40032,1.53209 -7.83692,2.85841c-2.59349,1.41173 -4.06142,4.51816 -6.95673,5.45657c-1.63583,0.53019 -3.59082,0.43047 -5.29526,0.94241c-1.09465,0.19622 -2.11914,0.69059 -3.20763,0.9179c0.16377,0.0808 0.30916,0.18475 0.42112,0.33082c0.23754,0.3099 0.3842,0.66895 0.49721,1.0462c0.10377,0.02504 0.16793,0.05177 0.16793,0.05177c2.92259,1.24227 4.44335,2.8156 5.95967,5.59705l0.14226,1.17789c0,0 0,1.19011 -1.19011,1.19011c-1.19011,0 -1.19011,-1.19011 -1.19011,-1.19011l0.14225,-0.04943c-1.00957,-1.90229 -1.97135,-3.08768 -3.643,-3.99594c-0.18458,2.51937 -1.03967,4.34144 -2.62188,6.57347c-0.28392,0.40053 -0.5542,0.80082 -0.84895,1.17633c0.14685,0.29624 0.14685,0.5912 0.14685,0.5912c0,3.10279 0.14667,6.23463 -0.15932,9.32336l-0.20858,0.71817c0,0 -0.37635,1.12904 -1.50538,0.75269zM263.31384,170.22085c-1.28642,-0.69787 -1.61489,-2.05863 -1.59587,-3.43653c-0.00524,-0.00748 -0.01049,-0.01494 -0.01576,-0.02239l-0.18927,0.03441l-0.26548,-1.46012c-3.33638,1.40421 -5.97133,3.12223 -8.6191,5.77524c-0.49632,0.47597 -1.09799,0.8622 -1.48897,1.4279c-0.20428,0.29557 -0.09296,0.72022 -0.22628,1.05386c-0.7389,1.84914 -1.80647,3.88087 -3.35479,5.17676c-2.55293,2.13673 -6.3074,3.97953 -9.69153,4.19117c-1.09723,0.06862 -3.25324,-0.58903 -4.16409,-0.82491c-4.5317,-1.17355 -8.43883,-4.01025 -12.15959,-6.79705c-0.40114,1.11919 -1.47912,4.11895 -1.52603,4.21836c-0.10268,0.2176 -0.21659,0.43459 -0.33964,0.65077l0.84867,0.69579c2.83083,3.85699 8.54777,3.95083 12.87417,4.59921c2.22741,0.33382 4.66895,0.80392 6.92511,0.32454c1.08872,-0.23133 2.11584,-0.71618 3.21043,-0.91784c1.6761,-0.50224 3.51918,-0.42064 5.137,-0.89858c2.56471,-0.75768 4.19203,-4.00608 6.54386,-5.28253c1.33927,-0.72689 2.97014,-0.97763 4.41739,-1.33373c0.82887,-0.20395 2.10074,-0.28421 2.78043,-1.02399c0.56007,-0.60958 0.47732,-1.49001 0.64285,-2.2268c0.06522,-0.29032 0.98002,-3.59451 1.06081,-3.72452c0.00233,-0.00375 0.00466,-0.00748 0.00701,-0.01121c-0.2865,-0.00807 -0.56226,-0.05266 -0.81137,-0.1878z" fill="#000000" stroke="none" stroke-width="0.5"/><path d="M237.11596,198.26745c-0.33199,0.45744 -0.72245,0.93264 -1.13041,1.14706c-0.35972,0.18907 -1.98072,-0.06979 -2.18566,-0.09001c-0.66268,-0.06538 -1.61291,0.2606 -1.98831,-0.2894c-0.09621,-0.14097 0.19694,-0.28654 0.25602,-0.44666c0.16163,-0.43807 0.26487,-0.91058 0.40749,-1.3552c1.53292,0.32937 3.0976,0.65042 4.63033,1.03369z" fill="#ffffff" stroke="none" stroke-width="0.5"/><path d="M264.14836,170.40315c-0.00235,0.00373 -0.00468,0.00748 -0.00701,0.01122c-0.08079,0.13002 -0.99501,3.43797 -1.06023,3.72828c-0.16553,0.73679 -0.08273,1.61975 -0.6428,2.22933c-0.67969,0.73978 -1.95166,0.82152 -2.78053,1.02547c-1.44725,0.3561 -3.0786,0.60986 -4.41787,1.33675c-2.35182,1.27645 -3.98732,4.53801 -6.55204,5.29569c-1.61782,0.47795 -3.47177,0.40131 -5.14787,0.90355c-1.0946,0.20166 -2.12953,0.6866 -3.21824,0.91793c-2.25617,0.47939 -4.70963,0.00376 -6.93704,-0.33006c-4.3264,-0.64838 -10.05088,-0.75457 -12.88171,-4.61156l-0.84886,-0.69669c0.12305,-0.21619 0.23685,-0.43378 0.33953,-0.65137c0.0469,-0.09941 1.17212,-3.10291 1.57326,-4.22211c3.72075,2.7868 7.6228,5.60838 12.1545,6.78193c0.91084,0.23588 3.05969,0.88744 4.15692,0.81881c3.38413,-0.21164 7.10617,-2.04502 9.6591,-4.18175c1.54831,-1.2959 2.61359,-3.31084 3.35249,-5.15998c0.13332,-0.33364 0.02265,-0.756 0.22693,-1.05157c0.39098,-0.5657 0.99328,-0.95027 1.4896,-1.42624c2.64777,-2.65302 5.3256,-4.3916 8.66198,-5.7958l0.26617,1.46152l0.18929,-0.03437c0.00527,0.00745 0.01053,0.01494 0.01577,0.02242c-0.01902,1.3779 0.31079,2.74253 1.59722,3.4404c0.24911,0.13514 0.52496,0.18012 0.81146,0.18819z" fill="#ffffff" stroke="none" stroke-width="0.5"/><path d="M252.89725,148.25252c0.84153,0.84153 0,1.68307 0,1.68307l-0.24133,0.23298c-1.16443,0.95252 -2.37763,1.96665 -3.51741,3.05287c0.99259,-0.41832 2.0086,-0.78021 3.07613,-1.02653c0.58611,-0.13524 1.21766,-0.47847 1.78355,-0.27453c2.68468,0.96754 2.67706,2.07016 3.52285,4.36826c0.31033,0.8432 0.81294,1.64966 0.88798,2.54502c0.07505,0.89536 -0.29463,1.77272 -0.45191,2.65734c-0.01646,0.0926 -0.60828,3.6353 -0.90356,4.03592c-0.54587,0.74059 -1.38852,1.20753 -2.09288,1.7994c-2.74042,2.30274 -6.89204,4.73557 -10.54945,2.82409c-0.79747,-0.41679 -1.31057,-1.23332 -1.96586,-1.84999c-0.37288,-0.39447 -0.91909,-0.67861 -1.11862,-1.18341c-0.33933,-0.85846 -0.30758,-1.82074 -0.43046,-2.73562c-0.11699,-0.87104 -0.45777,-1.7582 -0.28896,-2.62069c0.17632,-0.90084 0.84462,-1.6301 1.27919,-2.43864c0.50143,-0.93291 1.03339,-1.8229 1.59726,-2.67639c-0.06105,-0.77259 0.72463,-1.12178 0.72463,-1.12178c0.02446,-0.01087 0.04891,-0.02176 0.07334,-0.03269c1.92883,-2.66901 4.20171,-4.98375 6.86692,-7.16483l0.0655,-0.07386c0,0 0.84153,-0.84153 1.68307,0z" fill="#000000" stroke="none" stroke-width="0.5"/><path d="M222.52617,180.23744c0,-0.65728 0.53283,-1.19011 1.19011,-1.19011c0.65728,0 1.19011,0.53283 1.19011,1.19011c0,0.65728 -0.53283,1.19011 -1.19011,1.19011c-0.65728,0 -1.19011,-0.53283 -1.19011,-1.19011z" fill="#000000" stroke="none" stroke-width="0.5"/><path d="M248.3,180.54428c0,-0.65728 0.53283,-1.19011 1.19011,-1.19011c0.65728,0 1.19011,0.53283 1.19011,1.19011c0,0.65728 -0.53283,1.19011 -1.19011,1.19011c-0.65728,0 -1.19011,-0.53283 -1.19011,-1.19011z" fill="#000000" stroke="none" stroke-width="0.5"/><path d="M223.22833,196.96472c0.59223,-0.56494 1.37476,-0.11778 1.37476,-0.11778c0.51376,0.36722 1.37227,0.49317 1.54127,1.10164c0.26676,0.96048 0.26428,2.23017 -0.41266,2.9619c-0.99687,1.07754 -4.87772,0.01923 -4.59398,-1.88401c0.2921,-1.95927 1.16892,-2.28554 2.09062,-2.06175z" fill="#ffffff" stroke="#000000" stroke-width="2"/><path d="M250.23596,197.62553c0.20057,1.03094 -0.29309,2.20105 -1.29458,2.73007c-0.5034,0.26591 -1.40432,0.05447 -2.24728,-0.34651c-0.75018,0.07407 -1.12527,-0.67612 -1.12527,-0.67612l-0.00023,-0.00203c-0.46981,-0.35605 -0.80809,-0.73635 -0.86583,-1.04675c-0.58703,-3.15597 3.44312,-2.9703 5.15225,-2.9748c0,0 1.19011,0 1.19011,1.19011c0,0.7407 -0.461,1.0204 -0.80916,1.12602z" fill="#ffffff" stroke="#000000" stroke-width="2"/></g></g></g></svg>