<svg version="1.1" xmlns="http://www.w3.org/2000/svg" xmlns:xlink="http://www.w3.org/1999/xlink" width="145.4198" height="134.95185" viewBox="0,0,145.4198,134.95185"><g transform="translate(-189.73353,-118.14846)"><g stroke-miterlimit="10"><g><path d="M243.80819,222.67608c0.83067,2.35796 -1.5273,3.18863 -1.5273,3.18863l-1.36943,0.47405c-5.40452,2.39169 -11.51421,4.9863 -17.58666,4.14752c-2.87771,-0.3975 -7.40935,-2.83731 -9.95435,-4.04761c-0.77088,-0.3666 -1.29439,-1.32188 -2.14444,-1.3997c-0.56825,-0.05202 -0.81082,0.83788 -1.32662,1.08193c-0.9212,0.43587 -1.95068,0.59256 -2.91417,0.92462c-4.41412,1.52129 -10.1448,3.92155 -14.10381,-0.55653c-4.29297,-4.85583 -1.99378,-13.09818 -1.28588,-18.76139c0,0 0.31009,-2.48069 2.79078,-2.17061c2.48069,0.31009 2.17061,2.79078 2.17061,2.79078c-0.46636,3.73091 -2.68488,11.41024 0.00321,14.75492c2.39279,2.97725 8.87905,-0.58637 11.34197,-1.56554c1.09005,-0.43337 2.01327,-1.5474 3.18519,-1.49625c4.52412,0.19748 8.57741,4.91317 13.03844,5.50995c4.98721,0.66717 10.33845,-1.80904 14.75506,-3.78114l1.73879,-0.62092c0,0 2.35796,-0.83067 3.18863,1.5273z" fill="#000000" stroke="none" stroke-width="0.5"/><path d="M256.31295,223.99847c-3.21971,-0.80511 -6.4131,-1.45654 -9.63323,-2.14842c-0.29959,0.93399 -0.51017,1.89705 -0.8497,2.81727c-0.1241,0.33635 -0.74125,0.63455 -0.53914,0.93067c0.78857,1.15535 2.76425,0.4416 4.1563,0.57892c0.4305,0.04247 3.76651,0.59926 4.52216,0.20209c0.85697,-0.45042 1.66838,-1.41855 2.36577,-2.37949zM256.12872,251.66024c-2.37171,-0.79057 -1.58113,-3.16228 -1.58113,-3.16228l0.20639,-0.425c0.56119,-5.55595 0.37492,-11.19412 0.32189,-16.7904c-1.92898,0.49734 -4.35232,0.06567 -6.15353,-0.13325c-0.97528,-0.10771 -1.99069,-0.16132 -2.98094,-0.30133c-3.62312,5.98351 -6.16384,12.23629 -7.86724,19.04904l-0.32174,1.28696c0,0 -0.60634,2.42535 -3.03169,1.81902c-2.42535,-0.60634 -1.81902,-3.0317 -1.81902,-3.0317l0.32281,-1.29121c1.79778,-7.14019 4.44435,-13.71373 8.18999,-20.00372c-0.20595,-0.24354 -0.40053,-0.51421 -0.5822,-0.81539c-0.95829,-1.5887 0.64535,-6.19002 1.14371,-7.714c0.74948,-2.29192 1.46842,-4.84255 2.33948,-7.36827c-4.54608,2.72833 -8.60502,5.90473 -11.32963,10.67933l0.32939,0.04874c0,0 0,2.5 -2.5,2.5c-2.5,0 -2.5,-2.5 -2.5,-2.5l0.3294,-2.52944c4.35141,-7.60521 11.41343,-11.71144 19.04138,-15.79006c0,0 0.0607,-0.03237 0.16733,-0.0763c0.62908,-0.96196 1.32781,-1.85815 2.11256,-2.66311c-0.7074,-0.10388 -1.41106,-0.21065 -2.10982,-0.31556c-10.74165,-1.61269 -23.18802,-2.25873 -30.32036,-11.60866l-0.57601,-0.34076c-1.50286,1.9765 -3.11795,3.89285 -4.44232,5.71109c-1.9724,0.79397 -3.82739,1.99015 -5.91719,2.38193c-1.29722,0.24319 -2.63466,-0.25 -3.92285,-0.53718c-6.35222,-1.41611 -10.78044,-4.48438 -12.66029,-11.1073c-0.78577,-2.76835 0.2862,-5.74921 0.51871,-8.6175c0.26782,-3.3039 0.02224,-6.68914 0.79599,-9.91231c0.71713,-2.9873 2.51954,-5.60406 3.79746,-8.39784c0.29431,-0.64342 4.2286,-9.29462 4.46729,-9.59842c1.15062,-1.46448 2.8784,-2.36465 4.34313,-3.51495c1.48919,-1.16951 2.76517,-2.72678 4.51773,-3.44373c0.56152,-0.22971 1.15543,-0.41072 1.77351,-0.55061c-0.1746,-0.32785 -0.28514,-0.74301 -0.28514,-1.2687c0,-2.5 2.5,-2.5 2.5,-2.5l1.94925,0.60186c0.98502,0.86291 1.90937,1.82812 2.77102,2.87706c2.20925,0.173 4.37514,0.5003 6.22481,0.72993c0,0 2.48069,0.31009 2.17061,2.79078c-0.31008,2.48069 -2.79078,2.17061 -2.79078,2.17061c-0.61116,-0.07695 -1.30979,-0.18104 -2.06336,-0.29064c3.72203,7.09611 5.36695,15.92701 4.57358,23.20432c0.36046,0.14966 0.58896,0.32104 0.58896,0.32104c7.4976,5.62321 15.41866,11.69709 24.59049,14.03713c0.71654,0.18282 5.77272,1.68436 7.34957,1.57764c6.0014,-0.40616 12.70353,-3.82845 17.23414,-7.58304c2.59379,-2.14952 4.40091,-5.75158 5.63464,-8.83273c0.37829,-0.94475 0.24254,-2.10032 0.81376,-2.94256c1.06048,-1.56366 2.62885,-2.71437 3.94326,-4.07155c7.83156,-7.817 16.32616,-12.48934 26.89986,-15.79793c1.15296,-0.36077 6.38965,-2.09451 8.14186,-1.67087c4.98401,1.205 7.85518,4.74129 11.64176,7.74636l0.11137,0.2086l0.0483,-0.04226l2.24793,2.56906c0.38989,0.44092 0.62653,1.02051 0.62653,1.65537c0,1.32366 -1.0287,2.40705 -2.33024,2.49433l-4.16756,0.32058l-0.00114,-0.0148c-0.03154,0.00684 -0.06309,0.01362 -0.09466,0.02033c-0.65976,0.14015 -1.3854,-0.30859 -2.02167,-0.0848c-2.21871,0.78039 -5.03094,3.59652 -6.60207,4.98596c-0.85044,0.75209 -1.9402,1.30407 -2.54206,2.26669c-2.46972,3.9501 -0.77279,9.58567 -4.15574,13.28014c-4.17822,4.56296 -11.34417,3.21837 -16.4626,6.00452c-5.44801,2.96555 -8.53162,9.49106 -14.61363,11.46232c-3.43631,1.11375 -7.54305,0.90427 -11.12347,1.97967c-2.29948,0.41218 -4.45157,1.45069 -6.73809,1.92818c0.34402,0.16974 0.64944,0.3881 0.88463,0.69494c0.49899,0.651 0.80707,1.40523 1.04446,2.1977c0.21798,0.0526 0.35276,0.10875 0.35276,0.10875c6.13932,2.60957 9.33391,5.91459 12.51916,11.75743l0.29883,2.47434c0,0 0,2.5 -2.5,2.5c-2.5,0 -2.5,-2.5 -2.5,-2.5l0.29882,-0.10384c-2.12074,-3.99604 -4.14111,-6.48613 -7.65265,-8.39405c-0.38773,5.2923 -2.18398,9.11983 -5.50764,13.80855c-0.59642,0.84137 -1.16417,1.68225 -1.78334,2.47106c0.30847,0.62229 0.30847,1.24191 0.30847,1.24191c0,6.51786 0.30811,13.09676 -0.33468,19.58509l-0.43815,1.50862c0,0 -0.79057,2.37171 -3.16228,1.58114zM311.41757,165.08185c-2.70232,-1.46597 -3.39231,-4.32446 -3.35235,-7.21894c-0.01101,-0.01571 -0.02204,-0.03139 -0.03311,-0.04704l-0.39758,0.07229l-0.55767,-3.06719c-7.00856,2.94974 -12.54365,6.5587 -18.10568,12.13174c-1.0426,0.99984 -2.30649,1.81118 -3.1278,2.99952c-0.42912,0.62089 -0.19527,1.51292 -0.47533,2.21379c-1.55216,3.88439 -3.79476,8.15233 -7.04722,10.87455c-5.3628,4.48851 -13.24962,8.35958 -20.35848,8.80417c-2.3049,0.14415 -6.83391,-1.23735 -8.74728,-1.73285c-9.5195,-2.46522 -17.72701,-8.42412 -25.543,-14.27821c-0.84266,2.35103 -3.1071,8.65247 -3.20564,8.86129c-0.21569,0.4571 -0.45498,0.91291 -0.71347,1.36704l1.78275,1.46161c5.94658,8.10217 17.95585,8.29929 27.04409,9.66132c4.679,0.70123 9.80781,1.68876 14.54722,0.68174c2.28701,-0.48594 4.44463,-1.50444 6.74399,-1.92806c3.52089,-1.05503 7.39256,-0.88361 10.79103,-1.8876c5.38756,-1.59162 8.80598,-8.41535 13.74633,-11.09673c2.81333,-1.52694 6.23921,-2.05365 9.27937,-2.8017c1.74117,-0.42843 4.41291,-0.59703 5.84071,-2.15104c1.1765,-1.28051 1.00268,-3.12999 1.3504,-4.67773c0.13701,-0.60985 2.05868,-7.55079 2.22839,-7.82391c0.00489,-0.00787 0.00979,-0.01572 0.01472,-0.02355c-0.60184,-0.01695 -1.1811,-0.11062 -1.7044,-0.3945z" fill="#000000" stroke="none" stroke-width="0.5"/><path d="M256.38508,223.99785c-0.69739,0.96093 -1.51762,1.95915 -2.37459,2.40957c-0.75565,0.39717 -4.1608,-0.14661 -4.5913,-0.18908c-1.39205,-0.13733 -3.38816,0.54742 -4.17673,-0.60792c-0.20211,-0.29612 0.4137,-0.60192 0.5378,-0.93827c0.33953,-0.92022 0.55639,-1.9128 0.85599,-2.84679c3.22013,0.69189 6.50697,1.36631 9.72668,2.17142z" fill="#ffffff" stroke="none" stroke-width="0.5"/><path d="M313.17062,165.4648c-0.00493,0.00784 -0.00983,0.01571 -0.01472,0.02357c-0.16971,0.27312 -2.09016,7.22196 -2.22717,7.83181c-0.34772,1.54774 -0.17379,3.40253 -1.35029,4.68304c-1.42779,1.55401 -4.09975,1.72573 -5.84091,2.15416c-3.04016,0.74805 -6.46706,1.28111 -9.28039,2.80805c-4.94034,2.68138 -8.37596,9.53276 -13.76352,11.12438c-3.39847,1.004 -7.29296,0.84301 -10.81386,1.89804c-2.29937,0.42362 -4.47339,1.4423 -6.76039,1.92824c-4.73942,1.00702 -9.89327,0.00789 -14.57228,-0.69334c-9.08824,-1.36202 -21.11335,-1.58508 -27.05993,-9.68725l-1.78316,-1.4635c0.25849,-0.45413 0.49754,-0.91121 0.71323,-1.3683c0.09853,-0.20882 2.46221,-6.51812 3.30487,-8.86916c7.81599,5.85409 16.01281,11.78122 25.53231,14.24644c1.91336,0.4955 6.42733,1.86419 8.73223,1.72004c7.10886,-0.44459 14.92755,-4.29587 20.29035,-8.78438c3.25245,-2.72222 5.49024,-6.95491 7.04239,-10.8393c0.28006,-0.70087 0.04759,-1.58809 0.47671,-2.20898c0.82131,-1.18833 2.08653,-1.99618 3.12913,-2.99602c5.56203,-5.57305 11.18721,-9.2252 18.19576,-12.17494l0.55912,3.07014l0.39763,-0.07219c0.01107,0.01565 0.02213,0.03138 0.03313,0.04709c-0.03996,2.89449 0.65287,5.76109 3.35519,7.22706c0.5233,0.28388 1.10276,0.37837 1.7046,0.39532z" fill="#ffffff" stroke="none" stroke-width="0.5"/><path d="M289.536,118.93414c1.76776,1.76776 0,3.53553 0,3.53553l-0.50695,0.4894c-2.44606,2.00091 -4.99456,4.13123 -7.38883,6.413c2.08509,-0.87874 4.21937,-1.63894 6.46187,-2.15637c1.23122,-0.2841 2.55787,-1.0051 3.7466,-0.57669c5.63957,2.03245 5.62355,4.34868 7.40027,9.17618c0.6519,1.77127 1.70769,3.46536 1.86534,5.34619c0.15765,1.88083 -0.61891,3.72385 -0.9493,5.58213c-0.03458,0.19453 -1.27778,7.63648 -1.89807,8.47805c-1.14668,1.55571 -2.91678,2.5366 -4.3964,3.77991c-5.75666,4.83725 -14.47774,9.94776 -22.16068,5.93242c-1.67521,-0.87552 -2.75305,-2.59078 -4.12958,-3.88617c-0.78328,-0.82864 -1.93068,-1.42551 -2.34983,-2.48593c-0.71281,-1.80333 -0.64611,-3.82474 -0.90424,-5.74658c-0.24575,-1.82974 -0.96161,-3.69335 -0.607,-5.50514c0.37038,-1.89234 1.77424,-3.42427 2.68713,-5.12272c1.05333,-1.95972 2.17078,-3.82927 3.35529,-5.62216c-0.12824,-1.62294 1.5222,-2.35647 1.5222,-2.35647c0.05138,-0.02283 0.10274,-0.04572 0.15407,-0.06866c4.0518,-5.60664 8.8263,-10.46911 14.42498,-15.05078l0.1376,-0.15515c0,0 1.76776,-1.76776 3.53553,0z" fill="#000000" stroke="none" stroke-width="0.5"/><path d="M225.73707,186.12317c0,-1.38071 1.11929,-2.5 2.5,-2.5c1.38071,0 2.5,1.11929 2.5,2.5c0,1.38071 -1.11929,2.5 -2.5,2.5c-1.38071,0 -2.5,-1.11929 -2.5,-2.5z" fill="#000000" stroke="none" stroke-width="0.5"/><path d="M279.8788,186.76772c0,-1.38071 1.11929,-2.5 2.5,-2.5c1.38071,0 2.5,1.11929 2.5,2.5c0,1.38071 -1.11929,2.5 -2.5,2.5c-1.38071,0 -2.5,-1.11929 -2.5,-2.5z" fill="#000000" stroke="none" stroke-width="0.5"/><path d="M227.21207,221.26128c1.24406,-1.18675 2.88788,-0.24741 2.88788,-0.24741c1.07922,0.77139 2.88266,1.03598 3.23766,2.31415c0.56037,2.01763 0.55516,4.6848 -0.86686,6.2219c-2.09407,2.26353 -10.24637,0.0404 -9.65033,-3.95763c0.6136,-4.11574 2.45548,-4.80112 4.39165,-4.33101z" fill="#ffffff" stroke="#000000" stroke-width="2"/><path d="M283.94557,222.64941c0.42133,2.16565 -0.61567,4.62362 -2.71946,5.73491c-1.05746,0.55858 -2.94998,0.11442 -4.72075,-0.7279c-1.57587,0.15559 -2.3638,-1.42028 -2.3638,-1.42028l-0.00048,-0.00427c-0.98691,-0.74793 -1.69751,-1.54681 -1.8188,-2.19885c-1.23314,-6.62957 7.23279,-6.23956 10.82306,-6.249c0,0 2.5,0 2.5,2.5c0,1.55595 -0.96839,2.14351 -1.69976,2.36538z" fill="#ffffff" stroke="#000000" stroke-width="2"/></g></g></g></svg>